<svg width="20" height="20" viewBox="0 0 20 20" fill="none" xmlns="http://www.w3.org/2000/svg">
<path d="M18.2233 9.48944C17.5513 8.07383 16.7517 6.91933 15.8244 6.02593L14.8519 6.99847C15.6449 7.75635 16.3357 8.7478 16.9331 9.98258C15.3427 13.2741 13.0854 14.8376 10.0003 14.8376C9.07429 14.8376 8.22135 14.695 7.44149 14.4098L6.38772 15.4636C7.47086 15.9637 8.67506 16.2138 10.0003 16.2138C13.6741 16.2138 16.4151 14.3005 18.2233 10.4738C18.296 10.3199 18.3337 10.1518 18.3337 9.98163C18.3337 9.81142 18.296 9.64333 18.2233 9.48944ZM17.0082 3.36064L16.1933 2.54485C16.1791 2.53063 16.1623 2.51935 16.1437 2.51166C16.1251 2.50396 16.1052 2.5 16.0851 2.5C16.0651 2.5 16.0452 2.50396 16.0266 2.51166C16.008 2.51935 15.9912 2.53063 15.977 2.54485L13.8864 4.63442C12.7338 4.0457 11.4385 3.75134 10.0003 3.75134C6.32656 3.75134 3.58558 5.66467 1.77737 9.49135C1.70469 9.64525 1.66699 9.81334 1.66699 9.98354C1.66699 10.1537 1.70469 10.3218 1.77737 10.4757C2.49976 11.9972 3.36946 13.2168 4.38646 14.1344L2.36379 16.1565C2.33514 16.1852 2.31904 16.224 2.31904 16.2646C2.31904 16.3051 2.33514 16.344 2.36379 16.3727L3.17978 17.1887C3.20845 17.2173 3.24733 17.2334 3.28787 17.2334C3.32841 17.2334 3.36729 17.2173 3.39596 17.1887L17.0082 3.57702C17.0224 3.56282 17.0337 3.54595 17.0414 3.52739C17.0491 3.50882 17.053 3.48893 17.053 3.46883C17.053 3.44873 17.0491 3.42884 17.0414 3.41027C17.0337 3.39171 17.0224 3.37485 17.0082 3.36064ZM3.06758 9.98258C4.6598 6.69111 6.91719 5.12756 10.0003 5.12756C11.0428 5.12756 11.9907 5.30647 12.8506 5.67022L11.5069 7.01395C10.8705 6.67441 10.1419 6.5484 9.42843 6.6545C8.71498 6.7606 8.05453 7.0932 7.5445 7.60323C7.03447 8.11326 6.70188 8.77371 6.59577 9.48715C6.48967 10.2006 6.61569 10.9292 6.95523 11.5656L5.36071 13.1601C4.47821 12.3812 3.71746 11.3259 3.06758 9.98258ZM7.78306 9.98258C7.7834 9.64553 7.86323 9.31331 8.01609 9.01291C8.16894 8.71251 8.3905 8.4524 8.66276 8.25372C8.93503 8.05503 9.25032 7.92337 9.58303 7.86943C9.91573 7.81549 10.2565 7.84079 10.5776 7.94328L7.88456 10.6363C7.81706 10.425 7.78282 10.2044 7.78306 9.98258Z" fill="#616161"/>
<path d="M9.92429 12.1266C9.85815 12.1266 9.79297 12.1235 9.72836 12.1176L8.71875 13.1272C9.32599 13.3598 9.98759 13.4115 10.6236 13.276C11.2596 13.1406 11.8427 12.8238 12.3025 12.364C12.7623 11.9042 13.0791 11.3211 13.2145 10.6851C13.3499 10.0491 13.2983 9.38751 13.0657 8.78027L12.0561 9.78989C12.062 9.85449 12.0651 9.91967 12.0651 9.98581C12.0652 10.267 12.01 10.5454 11.9024 10.8052C11.7949 11.065 11.6372 11.3011 11.4384 11.4999C11.2396 11.6987 11.0035 11.8564 10.7437 11.964C10.4839 12.0715 10.2055 12.1268 9.92429 12.1266Z" fill="#888888"/>
</svg>
