<svg width="28" height="28" viewBox="0 0 28 28" fill="none" xmlns="http://www.w3.org/2000/svg">
<g clip-path="url(#clip0_792_54464)">
<path d="M28 14C28 16.6024 27.2897 19.0394 26.0526 21.1275C25.2823 22.4268 24.3075 23.5915 23.1725 24.5765C20.8229 26.6159 17.7873 27.8857 14.4578 27.9925C14.3057 27.9977 14.1532 28 14 28C13.8468 28 13.6943 27.9977 13.5422 27.9925C10.2291 27.8864 7.20807 26.6292 4.86334 24.6081C3.68393 23.5915 2.67606 22.3811 1.88907 21.0273C0.68808 18.9622 0 16.5611 0 14C0 11.5245 0.642365 9.19882 1.76965 7.18115C3.52692 4.03662 6.46167 1.63934 9.97705 0.586823C11.2509 0.205078 12.6016 0 14 0C15.3984 0 16.7491 0.205078 18.0229 0.586823C21.5148 1.63251 24.4342 4.00522 26.1949 7.11877C27.344 9.15076 28 11.4989 28 14Z" fill="#F93E81"/>
<path fill-rule="evenodd" clip-rule="evenodd" d="M17.8874 6.86719H10.1673C8.37489 6.86719 6.92188 8.3202 6.92188 10.1126V17.8327C6.92188 19.6251 8.37489 21.0781 10.1673 21.0781H17.8874C19.6798 21.0781 21.1328 19.6251 21.1328 17.8327V10.1126C21.1328 8.3202 19.6798 6.86719 17.8874 6.86719ZM10.1673 5.19531C7.45154 5.19531 5.25 7.39685 5.25 10.1126V17.8327C5.25 20.5485 7.45154 22.75 10.1673 22.75H17.8874C20.6031 22.75 22.8047 20.5485 22.8047 17.8327V10.1126C22.8047 7.39685 20.6031 5.19531 17.8874 5.19531H10.1673Z" fill="white"/>
<path d="M14.003 9.43359C11.4815 9.43359 9.42969 11.4854 9.42969 14.0069C9.42969 16.5284 11.4815 18.5798 14.003 18.5798C16.5247 18.5798 18.576 16.5284 18.576 14.0069C18.576 11.4854 16.5247 9.43359 14.003 9.43359ZM14.003 16.9887C12.3583 16.9887 11.0207 15.6511 11.0207 14.0069C11.0207 12.3623 12.3583 11.0246 14.003 11.0246C15.6474 11.0246 16.985 12.3623 16.985 14.0069C16.985 15.6511 15.6474 16.9887 14.003 16.9887Z" fill="white"/>
<path d="M19.718 9.31449C19.718 9.89532 19.247 10.3663 18.6662 10.3663C18.0852 10.3663 17.6143 9.89532 17.6143 9.31449C17.6143 8.73351 18.0852 8.2627 18.6662 8.2627C19.247 8.2627 19.718 8.73351 19.718 9.31449Z" fill="white"/>
</g>
<defs>
<clipPath id="clip0_792_54464">
<rect width="28" height="28" fill="white"/>
</clipPath>
</defs>
</svg>
