<svg width="18" height="18" viewBox="0 0 18 18" fill="none" xmlns="http://www.w3.org/2000/svg">
<path d="M7.94781 0.1765C3.66281 0.1765 0.176469 3.66284 0.176469 7.94784C0.176469 12.2331 3.66281 15.7192 7.94781 15.7192C12.2331 15.7192 15.7191 12.2331 15.7191 7.94784C15.7191 3.66284 12.2331 0.1765 7.94781 0.1765ZM7.94781 14.2845C4.45382 14.2845 1.61118 11.4419 1.61118 7.94787C1.61118 4.45388 4.45382 1.61121 7.94781 1.61121C11.4418 1.61121 14.2844 4.45385 14.2844 7.94784C14.2844 11.4418 11.4418 14.2845 7.94781 14.2845Z" fill="white"/>
<path fill-rule="evenodd" clip-rule="evenodd" d="M0 7.94784C0 3.56538 3.56535 3.05176e-05 7.94781 3.05176e-05C12.3305 3.05176e-05 15.8956 3.56538 15.8956 7.94784C15.8956 12.3305 12.3305 15.8956 7.94781 15.8956C3.56535 15.8956 0 12.3305 0 7.94784ZM1.78765 7.94787C1.78765 11.3444 4.55128 14.108 7.94781 14.108C11.3443 14.108 14.108 11.3444 14.108 7.94784C14.108 4.55131 11.3443 1.78768 7.94781 1.78768C4.55128 1.78768 1.78765 4.55134 1.78765 7.94787ZM0.176469 7.94784C0.176469 3.66284 3.66281 0.1765 7.94781 0.1765C12.2331 0.1765 15.7191 3.66284 15.7191 7.94784C15.7191 12.2331 12.2331 15.7192 7.94781 15.7192C3.66281 15.7192 0.176469 12.2331 0.176469 7.94784ZM1.61118 7.94787C1.61118 11.4419 4.45382 14.2845 7.94781 14.2845C11.4418 14.2845 14.2844 11.4418 14.2844 7.94784C14.2844 4.45385 11.4418 1.61121 7.94781 1.61121C4.45382 1.61121 1.61118 4.45388 1.61118 7.94787Z" fill="white"/>
<path d="M17.6133 16.5989L13.5005 12.486C13.2203 12.2058 12.7664 12.2058 12.4862 12.486C12.2059 12.7661 12.2059 13.2204 12.4862 13.5004L16.599 17.6132C16.7391 17.7533 16.9225 17.8234 17.1062 17.8234C17.2896 17.8234 17.4732 17.7533 17.6133 17.6132C17.8936 17.3332 17.8936 16.8789 17.6133 16.5989Z" fill="white"/>
<path fill-rule="evenodd" clip-rule="evenodd" d="M13.6253 12.3613L17.7381 16.4741C18.0873 16.823 18.0873 17.3891 17.7381 17.738M13.6253 12.3613C13.2761 12.0121 12.7106 12.0121 12.3614 12.3612L13.6253 12.3613ZM12.3614 12.3612C12.3614 12.3612 12.3614 12.3612 12.3614 12.3612C12.0123 12.7101 12.0122 13.2763 12.3614 13.6252C12.3614 13.6252 12.3614 13.6252 12.3614 13.6252L16.4742 17.738C16.6487 17.9125 16.8776 17.9999 17.1062 17.9999C17.3345 17.9999 17.5636 17.9125 17.7381 17.738M13.5005 12.486L17.6133 16.5989C17.8936 16.8789 17.8936 17.3332 17.6133 17.6132C17.4732 17.7533 17.2896 17.8234 17.1062 17.8234C16.9225 17.8234 16.7391 17.7533 16.599 17.6132L12.4862 13.5004C12.2059 13.2204 12.2059 12.7661 12.4862 12.486C12.7664 12.2058 13.2203 12.2058 13.5005 12.486Z" fill="white"/>
</svg>
