<svg width="16" height="17" viewBox="0 0 16 17" fill="none" xmlns="http://www.w3.org/2000/svg">
<path d="M15.3933 9.31497C15.7205 8.82072 15.8839 8.27666 15.8839 7.6824C15.8839 6.99458 15.6304 6.39716 15.1231 5.88919C14.6155 5.38176 14.0145 5.12809 13.3202 5.12809H11.5573C11.8778 4.4671 12.0383 3.82601 12.0383 3.20512C12.0383 2.42385 11.9211 1.80292 11.6876 1.34218C11.4539 0.88129 11.1133 0.542518 10.6658 0.325406C10.2183 0.108398 9.71436 0 9.1535 0C8.8128 0 8.51244 0.123518 8.25203 0.37066C7.96497 0.651057 7.75796 1.01172 7.63115 1.45243C7.50426 1.89301 7.40239 2.31541 7.32567 2.7194C7.24895 3.12335 7.1303 3.4088 6.97013 3.57571C6.64286 3.9296 6.28567 4.35706 5.89838 4.85779C5.224 5.73242 4.76655 6.24996 4.52628 6.41028H1.78201C1.42812 6.41028 1.12594 6.53566 0.875536 6.78585C0.625237 7.03629 0.5 7.33844 0.5 7.69236V14.1024C0.5 14.4563 0.625097 14.7583 0.875536 15.0088C1.12608 15.2592 1.42812 15.3845 1.78201 15.3845H4.66636C4.81328 15.3845 5.27392 15.518 6.04849 15.7851C6.86983 16.0723 7.59263 16.2909 8.21688 16.4412C8.84121 16.5915 9.47389 16.6667 10.1149 16.6667H11.0462H11.4069C12.3483 16.6667 13.1061 16.3977 13.6804 15.8602C14.2545 15.3226 14.5384 14.5898 14.5318 13.6617C14.9325 13.1475 15.1327 12.5532 15.1327 11.8789C15.1327 11.7321 15.1229 11.5886 15.1027 11.4482C15.3564 11.001 15.4835 10.5202 15.4835 10.0061C15.4834 9.76565 15.4534 9.53517 15.3933 9.31497ZM2.87375 13.9122C2.7469 14.039 2.59669 14.1026 2.42307 14.1026C2.24943 14.1026 2.09918 14.039 1.97229 13.9122C1.84547 13.7854 1.78201 13.6352 1.78201 13.4614C1.78201 13.2878 1.84533 13.1376 1.97229 13.0107C2.09932 12.8838 2.24943 12.8204 2.42307 12.8204C2.59669 12.8204 2.7469 12.8838 2.87375 13.0107C3.00064 13.1376 3.0641 13.2878 3.0641 13.4614C3.0641 13.6352 3.00064 13.7854 2.87375 13.9122ZM14.387 8.50416C14.2434 8.81125 14.0648 8.96817 13.8511 8.97476C13.9512 9.08832 14.0348 9.24706 14.1016 9.45052C14.1683 9.65423 14.2014 9.83946 14.2014 10.0065C14.2014 10.467 14.0247 10.8644 13.6708 11.1981C13.7911 11.4117 13.8511 11.6422 13.8511 11.8891C13.8511 12.1362 13.7928 12.3816 13.6759 12.6252C13.5592 12.8687 13.4005 13.044 13.2002 13.1508C13.2336 13.3511 13.2502 13.5381 13.2502 13.7117C13.2502 14.8267 12.6091 15.3842 11.3269 15.3842H10.1154C9.2405 15.3842 8.09887 15.1407 6.68987 14.6531C6.65644 14.6398 6.55976 14.6046 6.3994 14.5479C6.23905 14.4913 6.12058 14.4495 6.04376 14.4229C5.96693 14.396 5.85018 14.3576 5.69316 14.3076C5.53618 14.2574 5.40947 14.2207 5.31258 14.1974C5.21583 14.1741 5.10557 14.1524 4.98215 14.1324C4.85867 14.1123 4.75346 14.1024 4.66668 14.1024H4.34618V7.69261H4.66668C4.7735 7.69261 4.892 7.66247 5.02222 7.60252C5.1524 7.54239 5.28602 7.45227 5.42287 7.33205C5.55979 7.21183 5.68822 7.09333 5.80847 6.97641C5.92869 6.85959 6.06221 6.71271 6.20916 6.53583C6.35604 6.35881 6.47121 6.21698 6.55474 6.11013C6.63816 6.00331 6.7433 5.86636 6.87018 5.69944C6.997 5.53257 7.07386 5.43238 7.10056 5.39894C7.46774 4.94497 7.72481 4.64117 7.87169 4.48752C8.14546 4.20049 8.34409 3.83492 8.4676 3.39087C8.59126 2.94675 8.69307 2.52775 8.77291 2.13387C8.85296 1.73995 8.97999 1.45608 9.15381 1.28247C9.79466 1.28247 10.2221 1.43931 10.4357 1.75318C10.6493 2.06697 10.7561 2.55112 10.7561 3.20547C10.7561 3.59939 10.5958 4.13521 10.2752 4.81289C9.95477 5.49064 9.79466 6.02317 9.79466 6.41042H13.3201C13.6543 6.41042 13.9513 6.53888 14.2116 6.79609C14.4721 7.05313 14.6025 7.35187 14.6025 7.6925C14.6024 7.92617 14.5306 8.19664 14.387 8.50416Z" fill="#141414"/>
</svg>
