<svg width="16" height="16" viewBox="0 0 16 16" fill="none" xmlns="http://www.w3.org/2000/svg">
<path fill-rule="evenodd" clip-rule="evenodd" d="M7.99995 6.11426C6.95609 6.11426 6.11328 6.95707 6.11328 8.00092C6.11328 9.04478 6.95609 9.88759 7.99995 9.88759C9.04381 9.88759 9.88661 9.04478 9.88661 8.00092C9.88661 6.95707 9.04381 6.11426 7.99995 6.11426ZM5.11328 8.00092C5.11328 6.40478 6.40381 5.11426 7.99995 5.11426C9.59609 5.11426 10.8866 6.40478 10.8866 8.00092C10.8866 9.59707 9.59609 10.8876 7.99995 10.8876C6.40381 10.8876 5.11328 9.59707 5.11328 8.00092Z" fill="#616161"/>
<path fill-rule="evenodd" clip-rule="evenodd" d="M1.50489 5.99845C3.09884 3.49287 5.43458 1.98047 7.9999 1.98047C10.5653 1.98047 12.9012 3.493 14.4951 5.99877C14.8584 6.56833 15.0232 7.29791 15.0232 7.99714C15.0232 8.69636 14.8584 9.42594 14.4951 9.9955C12.9012 12.5013 10.5653 14.0138 7.9999 14.0138C5.43446 14.0138 3.09863 12.5013 1.50468 9.9955C1.14137 9.42594 0.976562 8.69636 0.976562 7.99714C0.976562 7.29777 1.14143 6.56805 1.50489 5.99845ZM7.9999 2.98047C5.85866 2.98047 3.80783 4.24127 2.34844 6.5355L2.34802 6.53615C2.11163 6.9065 1.97656 7.43663 1.97656 7.99714C1.97656 8.55764 2.11163 9.08777 2.34802 9.45812L2.34844 9.45877C3.80783 11.753 5.85866 13.0138 7.9999 13.0138C10.1411 13.0138 12.192 11.753 13.6514 9.45877L13.6518 9.45812C13.8882 9.08777 14.0232 8.55764 14.0232 7.99714C14.0232 7.43663 13.8882 6.9065 13.6518 6.53615L13.6514 6.5355C12.192 4.24127 10.1411 2.98047 7.9999 2.98047Z" fill="#616161"/>
</svg>
