<svg width="28" height="28" viewBox="0 0 28 28" fill="none" xmlns="http://www.w3.org/2000/svg">
<g clip-path="url(#clip0_792_54471)">
<path d="M28.0007 14C28.0007 21.7317 21.7324 28 14 28H13.9738C6.25381 27.9855 0 21.7214 0 14C0 6.27865 6.25381 0.0137992 13.9738 0H14C21.7324 0 28.0007 6.26623 28.0007 14Z" fill="black"/>
<path d="M13.9738 0V28C6.25381 27.9855 0 21.7214 0 14C0 6.27865 6.25381 0.0137992 13.9738 0Z" fill="#0C0C0C"/>
<path d="M21.6178 10.1247L21.6005 12.9929C21.0416 12.9861 20.4856 12.9115 19.9446 12.7707C19.1101 12.5527 18.323 12.1824 17.6229 11.6785C17.6229 11.9718 17.6271 12.4092 17.6271 12.9411C17.6271 13.649 17.6271 14.0513 17.6229 14.4784C17.6105 17.1168 17.676 17.6274 17.4442 18.6706C17.396 18.9222 17.33 19.17 17.2469 19.4123C16.8012 20.6542 15.8297 21.6491 14.8396 22.1783C14.5633 22.3252 14.2733 22.4447 13.9737 22.5351C12.1025 23.1022 9.85395 22.604 8.69344 21.2241L8.68585 21.2158L8.67688 21.2041C7.69092 20.0146 7.47565 18.16 7.45495 17.6853C7.45495 17.6246 7.45082 17.5653 7.45082 17.5653C7.43563 16.9168 7.52891 16.2704 7.7268 15.6527C7.92689 15.0138 8.5858 13.6801 10.0658 12.8701C10.9888 12.3729 12.0423 12.1713 13.0837 12.2926L13.0498 15.1952C12.9912 15.1801 11.5733 14.8441 10.6426 15.81C9.79944 16.6849 9.85395 18.0945 10.4521 18.8927C10.4839 18.9355 10.5177 18.9769 10.5529 19.0156C10.8875 19.3888 11.3118 19.5289 11.5982 19.6269C11.9778 19.752 12.3763 19.8103 12.7759 19.7994C13.204 19.7927 13.6204 19.6589 13.9723 19.4151C14.9452 18.7541 15.0763 17.577 15.0811 17.5101C15.0691 13.7208 15.0579 9.93154 15.0473 6.14227V6.13882L16.8709 6.10639H16.9005L17.1648 6.10156C17.3596 6.8028 17.6899 7.45911 18.1369 8.03345C18.2778 8.21309 18.4299 8.38363 18.5923 8.54402C19.206 9.14131 19.9432 9.5968 20.7519 9.87841H20.7574C21.038 9.98093 21.3255 10.0632 21.6178 10.1247Z" fill="#FD2854"/>
<path d="M20.7935 11.422H20.788C19.8059 11.5794 18.8006 11.503 17.8536 11.1992C17.1923 10.9842 16.5716 10.6603 16.0169 10.2408C16.3495 12.251 16.3495 14.3022 16.0169 16.3125C15.623 18.6749 15.3759 20.1556 14.0574 21.1029C14.0298 21.1229 14.0015 21.1429 13.9733 21.1615C12.1525 22.3945 9.60857 21.7825 8.67643 21.2022L8.66263 21.1939L8.63641 21.1774C8.32916 20.9738 8.04096 20.7429 7.77534 20.4874C7.29918 20.0255 6.91922 19.4739 6.65739 18.8644C6.39556 18.2549 6.25705 17.5995 6.24984 16.9362C6.23212 16.2491 6.34618 15.565 6.58585 14.9208C6.74109 14.5068 7.31789 13.0345 8.92481 12.1382C9.95378 11.574 11.1428 11.3728 12.3001 11.5669C12.2955 11.7969 12.2911 12.0269 12.287 12.2569V12.2617L12.2601 13.7175C11.7565 13.5988 11.2358 13.5699 10.7222 13.632C10.3082 13.683 9.90249 13.7306 9.47126 14.0018C8.91899 14.3573 8.5281 14.9151 8.38251 15.5556C8.29037 15.8658 8.27147 16.1931 8.32731 16.5119C8.34387 16.6029 8.4653 17.2356 8.97587 17.6896C9.14767 17.8421 9.22081 17.8483 9.47126 18.0822C9.69205 18.2892 9.74725 18.3886 9.94941 18.5604C9.94941 18.5604 9.99908 18.6025 10.0805 18.6618C10.0857 18.6663 10.0913 18.6705 10.0971 18.6742C10.2084 18.7556 10.3253 18.8292 10.4469 18.8943C10.9526 19.1593 11.8578 19.1875 12.5216 18.8653C13.4399 18.4189 13.9408 17.3923 13.9388 16.7823C13.9277 12.9917 13.9165 9.20128 13.905 5.41109H13.9684L16.7849 5.39453C16.7828 5.61422 16.8133 5.833 16.8752 6.04378C16.8821 6.06655 16.889 6.08794 16.8966 6.11278C16.9042 6.13762 16.909 6.14935 16.9153 6.1666C16.959 6.28126 17.0094 6.39323 17.0664 6.50192L17.1057 6.58126V6.58747C17.1051 6.58926 17.1051 6.59121 17.1057 6.59299L17.1119 6.6061L17.1181 6.61852C17.1218 6.62655 17.126 6.63438 17.1305 6.64198C17.1347 6.65095 17.1395 6.65992 17.1443 6.66889C17.1705 6.71926 17.2064 6.78549 17.2471 6.86001C17.2727 6.90624 17.2996 6.95246 17.3272 6.998L17.3568 7.04699C17.3713 7.07183 17.3865 7.09666 17.4017 7.12081L17.4569 7.20844C17.6715 7.54721 18.0482 8.11781 18.5822 8.54903C19.3329 9.15482 20.1953 9.32593 20.7363 9.37699C20.7397 9.54672 20.7438 9.71645 20.7473 9.88618C20.7675 10.3986 20.7829 10.9105 20.7935 11.422Z" fill="#24F6FA"/>
<path d="M20.8021 12.2331C19.3804 12.2852 17.9846 11.8432 16.8521 10.9822V17.0538C16.8383 17.2863 16.6348 19.8509 14.3179 21.2626C14.2033 21.3316 14.0881 21.3958 13.9729 21.4551C11.7933 22.5673 9.66339 21.6959 9.45295 21.6055C9.24371 21.5371 9.04318 21.4445 8.85545 21.3295C8.7968 21.2929 8.73953 21.255 8.68503 21.2157L8.63604 21.1791C7.21472 20.1 7.15607 17.9018 7.1471 17.5775C7.13192 16.9291 7.2252 16.2826 7.42309 15.6649C7.65768 14.9163 8.35799 13.6544 9.76206 12.8823C10.5368 12.4607 11.4075 12.2468 12.2894 12.2614V12.2662C12.2779 12.9952 12.2664 13.7245 12.2549 14.4541C12.1065 14.414 11.1972 14.185 10.3085 14.7445C9.75623 15.1 9.36534 15.6579 9.21975 16.2983C9.13263 16.6091 9.1138 16.9351 9.16455 17.2539C9.24334 17.6475 9.42907 18.0118 9.70134 18.3068C9.8158 18.4386 9.94367 18.5582 10.0829 18.6635C10.0881 18.668 10.0936 18.6722 10.0994 18.6759C10.2088 18.7603 10.3259 18.834 10.4493 18.896L10.4534 18.8995C10.7 19.2718 11.0556 19.5587 11.4716 19.721C11.8876 19.8833 12.3436 19.913 12.7772 19.8061C12.9792 19.7639 13.1754 19.6977 13.3616 19.6088C13.5871 19.5015 13.7938 19.3584 13.9736 19.1851C14.6718 18.5138 14.7739 17.5851 14.7788 17.5292L14.7484 6.15244L15.052 6.14623L16.8756 6.11035H16.9018C16.9087 6.12829 16.9163 6.14623 16.9239 6.16417C16.9659 6.26559 17.0163 6.37806 17.075 6.49949L17.1143 6.57884V6.58505C17.1136 6.58683 17.1136 6.58878 17.1143 6.59056L17.1205 6.60367L17.1267 6.61609C17.1304 6.62412 17.1346 6.63195 17.1391 6.63955C17.1433 6.64852 17.1481 6.65749 17.1529 6.66646C17.1847 6.72856 17.2219 6.79272 17.2557 6.85758C17.2813 6.90381 17.3082 6.95003 17.3358 6.99557L17.3654 7.04456L17.4103 7.11838L17.4655 7.20601C17.7811 7.69962 18.1593 8.15024 18.5908 8.5466C19.2205 9.12309 19.9531 9.57578 20.7504 9.88099H20.7559C20.7649 10.3922 20.7738 10.9049 20.7821 11.4162L20.8021 12.2331Z" fill="white"/>
<path opacity="0.17" d="M21.6177 10.1242L21.6005 12.9924C21.0415 12.9855 20.4855 12.9109 19.9446 12.7702C19.11 12.5522 18.3229 12.1819 17.6228 11.678C17.6228 11.9712 17.627 12.4087 17.627 12.9406C17.627 13.6485 17.627 14.0508 17.6228 14.4779C17.6104 17.1163 17.676 17.6269 17.4441 18.6701C17.3959 18.9216 17.33 19.1695 17.2468 19.4118C16.8011 20.6537 15.8296 21.6486 14.8395 22.1778C14.5632 22.3247 14.2732 22.4442 13.9736 22.5345V5.41109L16.7901 5.39453C16.788 5.61422 16.8185 5.833 16.8804 6.04378C16.8873 6.06655 16.8942 6.08794 16.9018 6.11278L17.1661 6.10795C17.3609 6.80919 17.6912 7.4655 18.1382 8.03984C18.2791 8.21948 18.4312 8.39002 18.5936 8.55041C19.3443 9.1562 20.2067 9.32731 20.7477 9.37837C20.7511 9.5481 20.7553 9.71783 20.7587 9.88756C21.0391 9.98674 21.3261 10.0658 21.6177 10.1242Z" fill="black"/>
</g>
<defs>
<clipPath id="clip0_792_54471">
<rect width="28" height="28" fill="white"/>
</clipPath>
</defs>
</svg>
