<svg width="108" height="40" viewBox="0 0 108 40" fill="none" xmlns="http://www.w3.org/2000/svg">
<path d="M34.2267 8.13667L23.1133 1.72333C22.3067 1.25667 21.24 1 20.1133 1C18.9867 1 17.9233 1.25667 17.1133 1.72333L6 8.14C4.31667 9.11 3 11.3933 3 13.3367V26.1667C3 28.11 4.31667 30.39 6 31.3633L17.1133 37.78C17.92 38.2467 18.9867 38.5033 20.1133 38.5033C21.24 38.5033 22.3033 38.2467 23.1133 37.78L34.2267 31.3633C35.91 30.3933 37.2267 28.11 37.2267 26.1667V13.3367C37.2267 11.39 35.9067 9.11 34.2267 8.13667ZM6.62334 30.2867C5.33334 29.5433 4.24334 27.6567 4.24334 26.1667V20.6833C8.2 20.3733 10.5433 21.42 13.47 22.7367C16.1033 23.9233 19.27 25.3467 24.4433 26.1133C23.4767 26.3 22.5 26.47 21.5267 26.64C16.2433 27.5633 11.2433 28.44 8.51333 31.38L6.62334 30.2867ZM23.3133 19.1233C20.9267 20.0733 17.8167 20.9233 13.2167 21.2633C11.1833 20.36 9.24667 19.5933 6.71 19.42L15.16 10.97L21.4033 17.2133L23.3133 19.1233ZM22.7233 16.7733L28.8 10.6967L33.3667 15.2633C30.7367 15.5033 28.8967 16.4333 26.86 17.4733C26.15 17.8367 25.3933 18.22 24.55 18.6L22.7233 16.7733ZM35.9833 26.1667C35.9833 27.6567 34.8933 29.5433 33.6033 30.2867L22.49 36.7033C21.8767 37.0567 21.01 37.26 20.11 37.26C19.2133 37.26 18.3433 37.0567 17.73 36.7033L9.61333 32.0167C12.12 29.54 16.8 28.7233 21.74 27.8633C27.3067 26.8933 33.0367 25.89 35.98 22.2967V26.1667H35.9833ZM35.9833 19.97C34.6767 22.8033 31.7067 24.29 28.1633 25.2667C22.0633 24.8233 18.47 23.56 15.5233 22.2867C21.5467 21.5633 24.7733 19.9267 27.42 18.58C30.0267 17.2533 32.1133 16.2 35.9833 16.5V19.97ZM35.9833 15.2533C35.6667 15.23 35.36 15.2133 35.0633 15.2067L29.24 9.38333C28.9967 9.14 28.6033 9.14 28.3633 9.38333L21.8467 15.8967L15.6 9.65C15.3567 9.40667 14.9633 9.40667 14.7233 9.65L4.97667 19.3933C4.73667 19.4033 4.49334 19.4133 4.24334 19.4333V13.3333C4.24334 11.8433 5.33334 9.95667 6.62334 9.21333L17.7367 2.79667C18.35 2.44333 19.2167 2.24 20.1167 2.24C21.0133 2.24 21.8833 2.44333 22.4967 2.79667L33.61 9.21333C34.9 9.95667 35.99 11.8433 35.99 13.3333V15.2533H35.9833Z" fill="url(#paint0_linear_523_36180)"/>
<path d="M67.163 11.7587C66.7646 11.6337 66.3818 11.6689 66.0146 11.8642C65.6474 12.0595 65.3974 12.3525 65.2646 12.7431L62.4052 21.8134L59.5458 12.7431C59.4521 12.4306 59.2724 12.1767 59.0068 11.9814C58.7411 11.7861 58.4443 11.6884 58.1161 11.6884C57.788 11.6884 57.4872 11.7861 57.2138 11.9814C56.9482 12.1767 56.7685 12.4306 56.6747 12.7431L53.8154 21.8134L50.956 12.7431C50.8232 12.3525 50.5732 12.0595 50.206 11.8642C49.8388 11.6689 49.456 11.6337 49.0575 11.7587C48.6591 11.8837 48.3661 12.1337 48.1786 12.5087C47.9833 12.8759 47.9482 13.2587 48.0732 13.6572L52.374 27.2743C52.6005 27.9697 53.0966 28.3173 53.8622 28.3173C54.5419 28.2939 55.0029 27.9462 55.245 27.2743L58.1161 18.204L60.9755 27.2743C61.249 27.9697 61.7372 28.3173 62.4404 28.3173C63.1669 28.3173 63.6357 27.9697 63.8466 27.2743L68.1474 13.6572C68.2724 13.2587 68.2372 12.8759 68.0419 12.5087C67.8544 12.1337 67.5615 11.8837 67.163 11.7587Z" fill="#FC3766"/>
<path d="M79.2685 14.7001C79.6904 14.7001 80.0458 14.5517 80.3349 14.2548C80.6318 13.9657 80.7802 13.6142 80.7802 13.2001C80.7802 12.7782 80.6318 12.4228 80.3349 12.1337C80.0458 11.8368 79.6904 11.6884 79.2685 11.6884H71.3818C70.9599 11.6884 70.6044 11.8368 70.3154 12.1337C70.0185 12.4228 69.87 12.7782 69.87 13.2001V26.8056C69.87 27.2275 70.0185 27.5829 70.3154 27.872C70.6044 28.1689 70.9599 28.3173 71.3818 28.3173H79.2685C79.6904 28.3173 80.0458 28.1689 80.3349 27.872C80.6318 27.5829 80.7802 27.2275 80.7802 26.8056C80.7802 26.3915 80.6318 26.0361 80.3349 25.7392C80.0458 25.4501 79.6904 25.3056 79.2685 25.3056H72.8818V21.4736H77.7333C78.1552 21.4736 78.5107 21.3251 78.7997 21.0282C79.0966 20.7392 79.245 20.3837 79.245 19.9618C79.245 19.5478 79.0966 19.1962 78.7997 18.9072C78.5107 18.6103 78.1552 18.4618 77.7333 18.4618H72.8818V14.7001H79.2685Z" fill="#FC3766"/>
<path d="M92.5341 14.7001C92.956 14.7001 93.3115 14.5517 93.6005 14.2548C93.8974 13.9657 94.0458 13.6142 94.0458 13.2001C94.0458 12.7782 93.8974 12.4228 93.6005 12.1337C93.3115 11.8368 92.956 11.6884 92.5341 11.6884H84.6474C84.2255 11.6884 83.87 11.8368 83.581 12.1337C83.2841 12.4228 83.1357 12.7782 83.1357 13.2001V26.8056C83.1357 27.2275 83.2841 27.5829 83.581 27.872C83.87 28.1689 84.2255 28.3173 84.6474 28.3173H92.5341C92.956 28.3173 93.3115 28.1689 93.6005 27.872C93.8974 27.5829 94.0458 27.2275 94.0458 26.8056C94.0458 26.3915 93.8974 26.0361 93.6005 25.7392C93.3115 25.4501 92.956 25.3056 92.5341 25.3056H86.1474V21.4736H90.999C91.4208 21.4736 91.7763 21.3251 92.0654 21.0282C92.3622 20.7392 92.5107 20.3837 92.5107 19.9618C92.5107 19.5478 92.3622 19.1962 92.0654 18.9072C91.7763 18.6103 91.4208 18.4618 90.999 18.4618H86.1474V14.7001H92.5341Z" fill="#FC3766"/>
<path d="M107.054 11.9228C106.702 11.6962 106.323 11.6298 105.917 11.7236C105.511 11.8095 105.194 12.0243 104.968 12.3681L101.827 17.2314L98.6865 12.3681C98.4599 12.0243 98.1435 11.8095 97.7372 11.7236C97.331 11.6298 96.9521 11.6962 96.6005 11.9228C96.249 12.1493 96.0302 12.4657 95.9443 12.872C95.8583 13.2782 95.9286 13.6572 96.1552 14.0087L100.034 19.997L96.1552 25.9853C95.9286 26.3368 95.8583 26.7157 95.9443 27.122C96.0302 27.5282 96.249 27.8447 96.6005 28.0712C96.9521 28.2978 97.331 28.3681 97.7372 28.2822C98.1435 28.1962 98.4599 27.9775 98.6865 27.6259L101.827 22.7743L104.968 27.6259C105.194 27.9775 105.511 28.1962 105.917 28.2822C106.323 28.3681 106.702 28.2978 107.054 28.0712C107.405 27.8447 107.624 27.5282 107.71 27.122C107.796 26.7157 107.726 26.3368 107.499 25.9853L103.62 19.997L107.499 14.0087C107.726 13.6572 107.796 13.2782 107.71 12.872C107.624 12.4657 107.405 12.1493 107.054 11.9228Z" fill="#FC3766"/>
<defs>
<linearGradient id="paint0_linear_523_36180" x1="37.2267" y1="1.00004" x2="2.24465" y2="1.71836" gradientUnits="userSpaceOnUse">
<stop stop-color="#B40182"/>
<stop offset="1" stop-color="#FC3766"/>
</linearGradient>
</defs>
</svg>
