<svg width="120" height="120" viewBox="0 0 120 120" fill="none" xmlns="http://www.w3.org/2000/svg">
<path d="M60 120C93.1371 120 120 93.1371 120 60C120 26.8629 93.1371 0 60 0C26.8629 0 0 26.8629 0 60C0 93.1371 26.8629 120 60 120Z" fill="#DCDCDC"/>
<path d="M108.15 95.7576C102.554 88.2658 95.2877 82.1825 86.9287 77.9911C78.5697 73.7997 69.3484 71.6157 59.9974 71.6128C50.6465 71.6099 41.4237 73.788 33.0621 77.9742C24.7006 82.1603 17.4306 88.2391 11.8301 95.7274C17.4021 103.254 24.6602 109.37 33.0223 113.585C41.3844 117.8 50.6178 119.997 59.9822 120C69.3467 120.003 78.5815 117.812 86.9462 113.602C95.311 109.392 102.573 103.28 108.15 95.7576Z" fill="#C2C2C2"/>
<path d="M59.9992 63.871C72.8265 63.871 83.225 53.4725 83.225 40.6452C83.225 27.818 72.8265 17.4194 59.9992 17.4194C47.172 17.4194 36.7734 27.818 36.7734 40.6452C36.7734 53.4725 47.172 63.871 59.9992 63.871Z" fill="#C2C2C2"/>
</svg>
